Coordinates
version=1
nRows=20
nColumns=38
inDegrees=no

Units are S.I. units (second, meters, Newtons, ...)
If the header above contains a line with 'inDegrees', this indicates whether rotational values are in degrees (yes) or radians (no).

endheader
time	pelvis_tilt	pelvis_list	pelvis_rotation	pelvis_tx	pelvis_ty	pelvis_tz	hip_flexion_r	hip_adduction_r	hip_rotation_r	knee_angle_r	ankle_angle_r	subtalar_angle_r	mtp_angle_r	hip_flexion_l	hip_adduction_l	hip_rotation_l	knee_angle_l	ankle_angle_l	subtalar_angle_l	mtp_angle_l	lumbar_extension	lumbar_bending	lumbar_rotation	arm_flex_r	arm_add_r	arm_rot_r	elbow_flex_r	pro_sup_r	wrist_flex_r	wrist_dev_r	arm_flex_l	arm_add_l	arm_rot_l	elbow_flex_l	pro_sup_l	wrist_flex_l	wrist_dev_l
1.1	0.159024	1.40874	-1.62805	0.745129	-0.162269	1.08412	-0.137729	-0.0410661	-0.149585	0.585287	-0.255186	0	0	0.147086	-0.0718328	-0.152683	0.507415	-0.188451	0	0	-0.467063	0.00393911	0.186911	-0.0695229	-0.705302	0.480244	1.08551	0.958781	0	0	0.157463	-0.417184	0.645475	0.970554	0.942469	0	0
1.11	0.153416	1.4142	-1.6243	0.747012	-0.171581	1.08267	-0.140541	-0.0414831	-0.149605	0.587382	-0.252476	0	0	0.151397	-0.06567	-0.139873	0.455601	-0.199772	0	0	-0.463344	0.00356663	0.187681	-0.0676302	-0.70457	0.478081	1.08404	0.963693	0	0	0.157925	-0.415914	0.644974	0.969947	0.941694	0	0
1.12	0.144919	1.42069	-1.61778	0.748973	-0.180985	1.08091	-0.141624	-0.0412832	-0.149373	0.589612	-0.250641	0	0	0.155864	-0.0604631	-0.128469	0.404842	-0.204565	0	0	-0.458051	0.00364429	0.18854	-0.0660268	-0.703929	0.476669	1.08233	0.968456	0	0	0.157421	-0.414656	0.644172	0.969413	0.940813	0	0
1.13	0.133142	1.42872	-1.60705	0.751122	-0.1906	1.0788	-0.141038	-0.0407204	-0.15075	0.592283	-0.248949	0	0	0.161201	-0.0558991	-0.117401	0.355649	-0.205215	0	0	-0.450296	0.00440779	0.188574	-0.0650122	-0.702595	0.475506	1.07979	0.973569	0	0	0.155583	-0.413573	0.642859	0.968844	0.939944	0	0
1.14	0.116269	1.43773	-1.59031	0.753479	-0.200383	1.07645	-0.139667	-0.0404446	-0.154144	0.596376	-0.246485	0	0	0.167051	-0.0519193	-0.106924	0.309022	-0.203086	0	0	-0.440938	0.00600391	0.187843	-0.0647363	-0.701107	0.474078	1.07738	0.978366	0	0	0.152436	-0.412681	0.640514	0.968885	0.939424	0	0
1.15	0.0953179	1.4467	-1.56944	0.755997	-0.210206	1.07398	-0.138009	-0.0405845	-0.157746	0.602292	-0.243128	0	0	0.17263	-0.0482629	-0.0983779	0.265918	-0.199117	0	0	-0.431423	0.00796096	0.18711	-0.065437	-0.700408	0.471811	1.07647	0.982633	0	0	0.148398	-0.411812	0.637058	0.96999	0.940249	0	0
1.16	0.10248	1.44439	-1.5818	0.758136	-0.220758	1.07318	-0.150489	-0.045764	-0.161921	0.602733	-0.243914	0	0	0.159507	-0.0416626	-0.105972	0.217015	-0.198001	0	0	-0.432887	0.00434552	0.189404	-0.0658842	-0.700795	0.470018	1.07729	0.9869	0	0	0.144172	-0.41175	0.632891	0.97265	0.940826	0	0
1.17	0.111027	1.44092	-1.59532	0.760499	-0.231247	1.07238	-0.163705	-0.0516969	-0.166943	0.603399	-0.246455	0	0	0.145187	-0.0343379	-0.112776	0.171405	-0.198047	0	0	-0.436126	0.000597103	0.191332	-0.0670102	-0.702392	0.467298	1.08044	0.99121	0	0	0.139778	-0.412602	0.628694	0.977534	0.941519	0	0
1.18	0.10247	1.44126	-1.59028	0.76294	-0.241678	1.07078	-0.171752	-0.0547514	-0.171115	0.606612	-0.248435	0	0	0.137267	-0.0298556	-0.11355	0.133544	-0.196562	0	0	-0.435055	-0.000396841	0.192683	-0.0689868	-0.703773	0.464263	1.08377	0.995376	0	0	0.134821	-0.414108	0.625117	0.983252	0.941988	0	0
1.19	0.0922703	1.44204	-1.58392	0.765438	-0.252286	1.06903	-0.17882	-0.0579632	-0.17507	0.611287	-0.250105	0	0	0.130125	-0.026083	-0.113346	0.10109	-0.195525	0	0	-0.432717	-0.00115015	0.194352	-0.0712137	-0.704719	0.461791	1.08619	0.999232	0	0	0.129449	-0.415345	0.621711	0.988323	0.941778	0	0
1.2	0.0773506	1.44327	-1.57297	0.767925	-0.26304	1.06716	-0.185044	-0.0605878	-0.178024	0.616604	-0.251967	0	0	0.124564	-0.024063	-0.112891	0.0773263	-0.193708	0	0	-0.429286	-0.00142492	0.196467	-0.0735621	-0.705232	0.460123	1.08762	1.00307	0	0	0.123727	-0.416429	0.61838	0.992982	0.941417	0	0
1.21	0.0565664	1.44473	-1.55608	0.770414	-0.273895	1.06521	-0.190804	-0.062315	-0.179674	0.622043	-0.254065	0	0	0.121007	-0.0240949	-0.112366	0.0638724	-0.189821	0	0	-0.425095	-0.000991557	0.199028	-0.0761798	-0.705779	0.459204	1.08866	1.0057	0	0	0.11818	-0.417615	0.616065	0.997271	0.941691	0	0
1.22	0.0316534	1.44597	-1.53485	0.772931	-0.284828	1.06321	-0.196294	-0.0636181	-0.180656	0.628129	-0.257063	0	0	0.118735	-0.0252557	-0.110239	0.0582789	-0.186482	0	0	-0.420677	-6.56793e-05	0.201572	-0.079112	-0.706293	0.458349	1.08985	1.00828	0	0	0.112315	-0.419192	0.613875	1.00211	0.942549	0	0
1.23	0.00643679	1.44693	-1.51309	0.775481	-0.295856	1.0612	-0.20151	-0.0651347	-0.181099	0.63505	-0.260285	0	0	0.117571	-0.0269182	-0.106391	0.061706	-0.186475	0	0	-0.416049	0.000929673	0.204072	-0.0826784	-0.706609	0.456928	1.09133	1.01048	0	0	0.106286	-0.421135	0.611847	1.00746	0.94363	0	0
1.24	-0.0162389	1.44846	-1.49492	0.778066	-0.307197	1.05914	-0.205094	-0.0678686	-0.180495	0.643591	-0.266603	0	0	0.118426	-0.0288844	-0.104689	0.0757473	-0.18864	0	0	-0.410148	0.00106116	0.20703	-0.0866642	-0.706357	0.455481	1.09233	1.01416	0	0	0.0986562	-0.423281	0.608468	1.0138	0.945364	0	0
1.25	-0.0365331	1.44968	-1.47932	0.780734	-0.318717	1.05713	-0.208511	-0.0714011	-0.179019	0.652763	-0.273929	0	0	0.121907	-0.0313991	-0.105316	0.102918	-0.186188	0	0	-0.403972	0.000786621	0.209972	-0.0907528	-0.70587	0.454232	1.09304	1.01811	0	0	0.0906622	-0.425506	0.604735	1.02005	0.947531	0	0
1.26	-0.0499235	1.44982	-1.47062	0.78353	-0.330401	1.05529	-0.212417	-0.0763113	-0.177438	0.66315	-0.281594	0	0	0.117699	-0.0317085	-0.100571	0.116197	-0.186669	0	0	-0.39848	-0.000227291	0.212922	-0.0948862	-0.705517	0.453629	1.09356	1.02137	0	0	0.083016	-0.427783	0.601719	1.02576	0.948553	0	0
1.27	-0.0557826	1.44867	-1.46964	0.78638	-0.342248	1.05367	-0.21676	-0.0826685	-0.175898	0.675158	-0.292182	0	0	0.112799	-0.0305841	-0.0987345	0.129584	-0.187432	0	0	-0.394225	-0.00222587	0.215731	-0.0985502	-0.704745	0.453893	1.09329	1.02463	0	0	0.0753364	-0.430386	0.598902	1.03138	0.948599	0	0
1.28	-0.0566871	1.44699	-1.47326	0.789295	-0.354159	1.05222	-0.220445	-0.0898345	-0.174142	0.689059	-0.304828	0	0	0.107231	-0.027941	-0.0975696	0.137181	-0.195539	0	0	-0.390561	-0.00489816	0.21817	-0.101913	-0.703266	0.454696	1.09197	1.02768	0	0	0.0678163	-0.433109	0.596279	1.0367	0.948709	0	0
1.29	-0.0542058	1.44553	-1.47926	0.792241	-0.366037	1.05093	-0.222427	-0.0974742	-0.172456	0.704802	-0.32133	0	0	0.102089	-0.0247754	-0.0943189	0.140989	-0.21388	0	0	-0.387023	-0.00810873	0.219521	-0.104218	-0.700675	0.456528	1.08906	1.03155	0	0	0.0606886	-0.436142	0.593675	1.04158	0.949185	0	0
